<?xml version="1.0" encoding="UTF-8"?> <!-- Generator: Adobe Illustrator 24.2.3, SVG Export Plug-In . SVG Version: 6.00 Build 0) --> <svg xmlns="http://www.w3.org/2000/svg" xmlns:xlink="http://www.w3.org/1999/xlink" version="1.1" id="Calque_1" x="0px" y="0px" viewBox="0 0 200 130" style="enable-background:new 0 0 200 130;" xml:space="preserve"> <style type="text/css"> .st0{fill-rule:evenodd;clip-rule:evenodd;fill:#808080;} </style> <g> <path class="st0" d="M161.8,38H183l-2.1,11.3h-8.6l-2,10.7h7.7l-1.9,10.7h-7.7l-8.3,46.4h-12.6L161.8,38L161.8,38z M157.2,38h-12.9 l-7.8,41.7c-0.5,2.8-1,4.6-1.4,5.4c-0.5,0.7-1,1.1-1.8,1.1c-0.7,0-1.2-0.4-1.3-1c-0.1-0.7,0.1-2.3,0.5-4.8l8-42.4h-13l-6.3,33.5 c-1.2,6.4-1.9,10.5-2.1,12.5c-0.1,2,0.2,3.9,1,5.7c0.7,1.8,2.2,3.3,4.3,4.4c2.1,1.2,4.5,1.7,7.5,1.7c2.7,0,5.1-0.5,7.3-1.5 c2.2-0.9,4-2.4,5.5-4.2c1.5-1.8,2.6-3.6,3.2-5.4c0.6-1.7,1.3-4.7,2.1-9.1L157.2,38L157.2,38z M104.5,74.4 c0.5-6.4,1.4-14.3,2.5-23.7c-3.4,10.8-5.6,18.6-6.8,23.7H104.5L104.5,74.4z M117.6,38l-4,56.7h-11.9l1.3-10.3h-4.5l-2.7,10.3H82.9 L101,38H117.6L117.6,38z M90.8,38H79.9l-4.7,25.5L72.6,38H61.8L51.2,94.6h10.9l4.8-25.8l1.9,25.8h11.3L90.8,38L90.8,38z M56,38.4 L45.3,64l2.6,30.6H36l-2.2-20.2L30,94.6H17.6l13-82.6H43l-6.4,45.2l7.9-18.8H56L56,38.4z"></path> </g> </svg> 